HIERARCHY
ROOT Hips
{
	OFFSET 0.000000 0.000000 0.000000
	CHANNELS 6 Xposition Yposition Zposition Xrotation Yrotation Zrotation
	JOINT Thigh.L
	{
		OFFSET 0.056181 0.027175 -0.095908
		CHANNELS 3 Xrotation Yrotation Zrotation
		JOINT Shin.L
		{
			OFFSET 0.060954 0.005335 -0.410453
			CHANNELS 3 Xrotation Yrotation Zrotation
			JOINT Foot.L
			{
				OFFSET -0.043090 0.032046 -0.435746
				CHANNELS 3 Xrotation Yrotation Zrotation
				JOINT Toe.L
				{
					OFFSET 0.048895 -0.126928 -0.064047
					CHANNELS 3 Xrotation Yrotation Zrotation
					End Site
					{
						OFFSET 0.000000 0.050000 0.000000
					}
				}
			}
		}
	}
	JOINT Thigh.R
	{
		OFFSET -0.061306 0.021239 -0.108684
		CHANNELS 3 Xrotation Yrotation Zrotation
		JOINT Shin.R
		{
			OFFSET -0.049801 0.013676 -0.391718
			CHANNELS 3 Xrotation Yrotation Zrotation
			JOINT Foot.R
			{
				OFFSET 0.014442 0.020033 -0.444695
				CHANNELS 3 Xrotation Yrotation Zrotation
				JOINT Toe.R
				{
					OFFSET -0.040059 -0.127754 -0.063925
					CHANNELS 3 Xrotation Yrotation Zrotation
					End Site
					{
						OFFSET 0.000000 0.050000 0.000000
					}
				}
			}
		}
	}
	JOINT Spine
	{
		OFFSET -0.002911 0.028209 0.115420
		CHANNELS 3 Xrotation Yrotation Zrotation
		JOINT Spine.2
		{
			OFFSET 0.009557 0.007067 0.143746
			CHANNELS 3 Xrotation Yrotation Zrotation
			JOINT Chest
			{
				OFFSET -0.010993 -0.023917 0.057263
				CHANNELS 3 Xrotation Yrotation Zrotation
				JOINT Neck
				{
					OFFSET -0.012434 0.026038 0.171901
					CHANNELS 3 Xrotation Yrotation Zrotation
					JOINT Head
					{
						OFFSET 0.025760 -0.021164 0.171374
						CHANNELS 3 Xrotation Yrotation Zrotation
						End Site
						{
							OFFSET 0.000000 0.050000 0.000000
						}
					}
				}
				JOINT Clavicle.L
				{
					OFFSET 0.047571 0.004466 0.088509
					CHANNELS 3 Xrotation Yrotation Zrotation
					JOINT UpperArm.L
					{
						OFFSET 0.127810 0.014539 0.058761
						CHANNELS 3 Xrotation Yrotation Zrotation
						JOINT ForeArm.L
						{
							OFFSET 0.268426 0.043747 -0.075798
							CHANNELS 3 Xrotation Yrotation Zrotation
							JOINT Hand.L
							{
								OFFSET 0.272780 0.000365 0.022790
								CHANNELS 3 Xrotation Yrotation Zrotation
								JOINT Thumb1.L
								{
									OFFSET 0.154583 0.000160 0.009991
									CHANNELS 3 Xrotation Yrotation Zrotation
									JOINT Thumb2.L
									{
										OFFSET 0.029896 0.000040 0.002498
										CHANNELS 3 Xrotation Yrotation Zrotation
										End Site
										{
											OFFSET 0.024913 0.000033 0.002081
										}
									}
								}
								JOINT Index1.L
								{
									OFFSET 0.137583 0.000160 0.009991
									CHANNELS 3 Xrotation Yrotation Zrotation
									JOINT Index2.L
									{
										OFFSET 0.029896 0.000040 0.002498
										CHANNELS 3 Xrotation Yrotation Zrotation
										JOINT Index3.L
										{
											OFFSET 0.021924 0.000029 0.001832
											CHANNELS 3 Xrotation Yrotation Zrotation
											End Site
											{
												OFFSET 0.017937 0.000024 0.001499
											}
										}
									}
								}
								JOINT Middle1.L
								{
									OFFSET 0.119583 0.000160 0.009991
									CHANNELS 3 Xrotation Yrotation Zrotation
									JOINT Middle2.L
									{
										OFFSET 0.030892 0.000041 0.002581
										CHANNELS 3 Xrotation Yrotation Zrotation
										JOINT Middle3.L
										{
											OFFSET 0.021924 0.000029 0.001832
											CHANNELS 3 Xrotation Yrotation Zrotation
											End Site
											{
												OFFSET 0.017937 0.000024 0.001499
											}
										}
									}
								}
								JOINT Ring1.L
								{
									OFFSET 0.101583 0.000160 0.009991
									CHANNELS 3 Xrotation Yrotation Zrotation
									JOINT Ring2.L
									{
										OFFSET 0.028899 0.000039 0.002414
										CHANNELS 3 Xrotation Yrotation Zrotation
										JOINT Ring3.L
										{
											OFFSET 0.019931 0.000027 0.001665
											CHANNELS 3 Xrotation Yrotation Zrotation
											End Site
											{
												OFFSET 0.016941 0.000023 0.001415
											}
										}
									}
								}
								JOINT Pinky1.L
								{
									OFFSET 0.085583 0.000160 0.009991
									CHANNELS 3 Xrotation Yrotation Zrotation
									JOINT Pinky2.L
									{
										OFFSET 0.023917 0.000032 0.001998
										CHANNELS 3 Xrotation Yrotation Zrotation
										JOINT Pinky3.L
										{
											OFFSET 0.016941 0.000023 0.001415
											CHANNELS 3 Xrotation Yrotation Zrotation
											End Site
											{
												OFFSET 0.013951 0.000019 0.001166
											}
										}
									}
								}
							}
						}
					}
				}
				JOINT Clavicle.R
				{
					OFFSET -0.048830 0.010680 0.087606
					CHANNELS 3 Xrotation Yrotation Zrotation
					JOINT UpperArm.R
					{
						OFFSET -0.110879 0.010934 0.054821
						CHANNELS 3 Xrotation Yrotation Zrotation
						JOINT ForeArm.R
						{
							OFFSET -0.286729 0.028180 -0.039371
							CHANNELS 3 Xrotation Yrotation Zrotation
							JOINT Hand.R
							{
								OFFSET -0.269133 0.013990 -0.005534
								CHANNELS 3 Xrotation Yrotation Zrotation
								JOINT Thumb1.R
								{
									OFFSET -0.154813 0.006228 -0.002464
									CHANNELS 3 Xrotation Yrotation Zrotation
									JOINT Thumb2.R
									{
										OFFSET -0.029953 0.001557 -0.000616
										CHANNELS 3 Xrotation Yrotation Zrotation
										End Site
										{
											OFFSET -0.024961 0.001297 -0.000513
										}
									}
								}
								JOINT Index1.R
								{
									OFFSET -0.137813 0.006228 -0.002464
									CHANNELS 3 Xrotation Yrotation Zrotation
									JOINT Index2.R
									{
										OFFSET -0.029953 0.001557 -0.000616
										CHANNELS 3 Xrotation Yrotation Zrotation
										JOINT Index3.R
										{
											OFFSET -0.021966 0.001142 -0.000452
											CHANNELS 3 Xrotation Yrotation Zrotation
											End Site
											{
												OFFSET -0.017972 0.000934 -0.000370
											}
										}
									}
								}
								JOINT Middle1.R
								{
									OFFSET -0.119813 0.006228 -0.002464
									CHANNELS 3 Xrotation Yrotation Zrotation
									JOINT Middle2.R
									{
										OFFSET -0.030952 0.001609 -0.000636
										CHANNELS 3 Xrotation Yrotation Zrotation
										JOINT Middle3.R
										{
											OFFSET -0.021966 0.001142 -0.000452
											CHANNELS 3 Xrotation Yrotation Zrotation
											End Site
											{
												OFFSET -0.017972 0.000934 -0.000370
											}
										}
									}
								}
								JOINT Ring1.R
								{
									OFFSET -0.101813 0.006228 -0.002464
									CHANNELS 3 Xrotation Yrotation Zrotation
									JOINT Ring2.R
									{
										OFFSET -0.028955 0.001505 -0.000595
										CHANNELS 3 Xrotation Yrotation Zrotation
										JOINT Ring3.R
										{
											OFFSET -0.019969 0.001038 -0.000411
											CHANNELS 3 Xrotation Yrotation Zrotation
											End Site
											{
												OFFSET -0.016974 0.000882 -0.000349
											}
										}
									}
								}
								JOINT Pinky1.R
								{
									OFFSET -0.085813 0.006228 -0.002464
									CHANNELS 3 Xrotation Yrotation Zrotation
									JOINT Pinky2.R
									{
										OFFSET -0.023963 0.001246 -0.000493
										CHANNELS 3 Xrotation Yrotation Zrotation
										JOINT Pinky3.R
										{
											OFFSET -0.016974 0.000882 -0.000349
											CHANNELS 3 Xrotation Yrotation Zrotation
											End Site
											{
												OFFSET -0.013978 0.000727 -0.000287
											}
										}
									}
								}
							}
						}
					}
				}
			}
		}
	}
}
MOTION
Frames: 5
Frame Time: 0.04166667
0.009374 -0.063828 1.635233 -8.056550 -1.006120 0.248500 6.970583 -2.361033 2.706779 3.620107 1.797943 -7.746796 -8.222455 -2.957012 10.302524 -0.540867 -1.788106 -1.085740 2.879801 5.038456 -4.014550 12.696194 0.658491 3.309850 -8.496815 -2.814842 -7.957402 -0.475418 -1.702150 0.632923 6.529101 0.756530 2.194600 -4.187050 1.251638 -1.420963 5.874991 -0.419039 -0.180372 4.246607 2.154404 2.110059 6.225196 -0.799499 1.533641 0.141407 20.816032 -3.301723 22.623530 46.313397 -23.591860 15.236621 -1.357239 -23.860216 -4.153205 -9.243003 -7.708129 0.000000 0.000000 0.000000 0.000000 0.000000 0.000000 0.000000 0.000000 0.000000 0.000000 0.000000 0.000000 0.000000 0.000000 0.000000 0.000000 0.000000 0.000000 0.000000 0.000000 0.000000 0.000000 0.000000 0.000000 0.000000 0.000000 0.000000 0.000000 0.000000 0.000000 0.000000 0.000000 0.000000 0.000000 0.000000 0.000000 0.000000 0.000000 0.000000 0.000000 0.000000 0.000000 1.115937 -20.419485 8.491667 27.998737 -47.849955 26.581917 9.377777 3.716392 28.690937 0.752132 6.104472 4.585241 0.000000 0.000000 0.000000 0.000000 0.000000 0.000000 0.000000 0.000000 0.000000 0.000000 0.000000 0.000000 0.000000 0.000000 0.000000 0.000000 0.000000 0.000000 0.000000 0.000000 0.000000 0.000000 0.000000 0.000000 0.000000 0.000000 0.000000 0.000000 0.000000 0.000000 0.000000 0.000000 0.000000 0.000000 0.000000 0.000000 0.000000 0.000000 0.000000 0.000000 0.000000 0.000000
0.008844 -0.062642 1.635191 -8.011111 -0.976869 0.242952 7.014200 -2.357323 2.711174 3.556343 1.781408 -7.713423 -8.247689 -2.973758 10.297460 -0.549361 -1.806108 -1.091813 2.935228 5.024560 -4.001575 12.609735 0.665777 3.340432 -8.484851 -2.841117 -7.959603 -0.457239 -1.708133 0.643496 6.422580 0.733696 2.208952 -4.175965 1.268274 -1.411566 5.857086 -0.423325 -0.181929 4.281192 2.152309 2.101017 6.192649 -0.781937 1.542813 0.129027 20.797036 -3.238435 22.678352 46.372126 -23.588993 15.318251 -1.331344 -23.822615 -4.104068 -9.179451 -7.688111 0.000000 0.000000 0.000000 0.000000 0.000000 0.000000 0.000000 0.000000 0.000000 0.000000 0.000000 0.000000 0.000000 0.000000 0.000000 0.000000 0.000000 0.000000 0.000000 0.000000 0.000000 0.000000 0.000000 0.000000 0.000000 0.000000 0.000000 0.000000 0.000000 0.000000 0.000000 0.000000 0.000000 0.000000 0.000000 0.000000 0.000000 0.000000 0.000000 0.000000 0.000000 0.000000 1.146753 -20.403199 8.456315 28.035380 -47.852848 26.572289 9.432819 3.675339 28.608830 0.778734 6.106458 4.608753 0.000000 0.000000 0.000000 0.000000 0.000000 0.000000 0.000000 0.000000 0.000000 0.000000 0.000000 0.000000 0.000000 0.000000 0.000000 0.000000 0.000000 0.000000 0.000000 0.000000 0.000000 0.000000 0.000000 0.000000 0.000000 0.000000 0.000000 0.000000 0.000000 0.000000 0.000000 0.000000 0.000000 0.000000 0.000000 0.000000 0.000000 0.000000 0.000000 0.000000 0.000000 0.000000
0.008714 -0.062069 1.635183 -8.007537 -0.973042 0.220123 7.101787 -2.337769 2.707064 3.453537 1.759214 -7.718619 -8.243351 -2.969480 10.318423 -0.551145 -1.834533 -1.101042 3.008167 5.010299 -4.033543 12.519557 0.706906 3.376049 -8.473947 -2.837346 -7.944396 -0.428396 -1.729489 0.649698 6.316556 0.716372 2.232963 -4.121866 1.274678 -1.404562 5.815470 -0.410152 -0.191709 4.296305 2.163185 2.048815 6.198302 -0.738427 1.538462 0.117550 20.786992 -3.152326 22.711448 46.374744 -23.580121 15.312502 -1.264936 -23.839752 -4.092034 -9.150541 -7.667826 0.000000 0.000000 0.000000 0.000000 0.000000 0.000000 0.000000 0.000000 0.000000 0.000000 0.000000 0.000000 0.000000 0.000000 0.000000 0.000000 0.000000 0.000000 0.000000 0.000000 0.000000 0.000000 0.000000 0.000000 0.000000 0.000000 0.000000 0.000000 0.000000 0.000000 0.000000 0.000000 0.000000 0.000000 0.000000 0.000000 0.000000 0.000000 0.000000 0.000000 0.000000 0.000000 1.140410 -20.395459 8.391383 28.097838 -47.858136 26.585636 9.413308 3.611303 28.602788 0.792072 6.186690 4.568213 0.000000 0.000000 0.000000 0.000000 0.000000 0.000000 0.000000 0.000000 0.000000 0.000000 0.000000 0.000000 0.000000 0.000000 0.000000 0.000000 0.000000 0.000000 0.000000 0.000000 0.000000 0.000000 0.000000 0.000000 0.000000 0.000000 0.000000 0.000000 0.000000 0.000000 0.000000 0.000000 0.000000 0.000000 0.000000 0.000000 0.000000 0.000000 0.000000 0.000000 0.000000 0.000000
0.008779 -0.061971 1.635168 -8.013130 -0.976119 0.209128 7.130185 -2.321242 2.691560 3.427949 1.734290 -7.724942 -8.229904 -2.998698 10.328912 -0.558544 -1.841001 -1.104578 3.069456 5.000629 -4.009580 12.432518 0.715554 3.374428 -8.465447 -2.807464 -7.949980 -0.429383 -1.734035 0.651293 6.247215 0.718234 2.246638 -4.088948 1.251748 -1.410834 5.772182 -0.397544 -0.187891 4.241609 2.147541 2.016513 6.215142 -0.720252 1.476755 0.096972 20.783531 -3.099846 22.772624 46.366941 -23.575922 15.331915 -1.252845 -23.884461 -4.101302 -9.117538 -7.688540 0.000000 0.000000 0.000000 0.000000 0.000000 0.000000 0.000000 0.000000 0.000000 0.000000 0.000000 0.000000 0.000000 0.000000 0.000000 0.000000 0.000000 0.000000 0.000000 0.000000 0.000000 0.000000 0.000000 0.000000 0.000000 0.000000 0.000000 0.000000 0.000000 0.000000 0.000000 0.000000 0.000000 0.000000 0.000000 0.000000 0.000000 0.000000 0.000000 0.000000 0.000000 0.000000 1.112276 -20.419963 8.342463 28.159186 -47.854692 26.603712 9.398508 3.611410 28.568127 0.773915 6.242343 4.597838 0.000000 0.000000 0.000000 0.000000 0.000000 0.000000 0.000000 0.000000 0.000000 0.000000 0.000000 0.000000 0.000000 0.000000 0.000000 0.000000 0.000000 0.000000 0.000000 0.000000 0.000000 0.000000 0.000000 0.000000 0.000000 0.000000 0.000000 0.000000 0.000000 0.000000 0.000000 0.000000 0.000000 0.000000 0.000000 0.000000 0.000000 0.000000 0.000000 0.000000 0.000000 0.000000
0.008766 -0.061615 1.635142 -8.020270 -0.977910 0.206114 7.176110 -2.315108 2.684193 3.405543 1.729546 -7.741034 -8.240311 -3.013871 10.336533 -0.561005 -1.850696 -1.110675 3.162288 4.997498 -4.034209 12.323731 0.730146 3.417554 -8.474219 -2.805507 -7.954625 -0.418112 -1.737751 0.655568 6.174135 0.717378 2.261062 -4.077947 1.256852 -1.406396 5.762855 -0.392116 -0.191108 4.246472 2.158402 1.994389 6.221942 -0.693370 1.479729 0.079980 20.763230 -3.023648 22.795552 46.379194 -23.571191 15.338088 -1.210248 -23.902912 -4.097684 -9.126282 -7.692016 0.000000 0.000000 0.000000 0.000000 0.000000 0.000000 0.000000 0.000000 0.000000 0.000000 0.000000 0.000000 0.000000 0.000000 0.000000 0.000000 0.000000 0.000000 0.000000 0.000000 0.000000 0.000000 0.000000 0.000000 0.000000 0.000000 0.000000 0.000000 0.000000 0.000000 0.000000 0.000000 0.000000 0.000000 0.000000 0.000000 0.000000 0.000000 0.000000 0.000000 0.000000 0.000000 1.094669 -20.397353 8.272261 28.228550 -47.892447 26.642283 9.372912 3.577398 28.546483 0.791211 6.279491 4.588317 0.000000 0.000000 0.000000 0.000000 0.000000 0.000000 0.000000 0.000000 0.000000 0.000000 0.000000 0.000000 0.000000 0.000000 0.000000 0.000000 0.000000 0.000000 0.000000 0.000000 0.000000 0.000000 0.000000 0.000000 0.000000 0.000000 0.000000 0.000000 0.000000 0.000000 0.000000 0.000000 0.000000 0.000000 0.000000 0.000000 0.000000 0.000000 0.000000 0.000000 0.000000 0.000000
